<?xml version="1.0" standalone="no"?>
<!DOCTYPE svg PUBLIC "-//W3C//DTD SVG 1.1//EN" "http://www.w3.org/Graphics/SVG/1.1/DTD/svg11.dtd" >
<svg xmlns="http://www.w3.org/2000/svg" xmlns:svg="http://www.w3.org/2000/svg" xmlns:xlink="http://www.w3.org/1999/xlink" viewBox="0 0 1024 1024"><path d="M382.67 400.85Q383.54 236.72 406.46 205.92Q414.15 176.38 405.44 195.65Q427.58 191.93 437.05 194.02Q460.45 178.95 466.52 169.99Q475.48 178.98 462.17 146.05Q479.7 168.81 487.01 152.56Q484.34 166.66 491.32 130.6Q488.2 118.34 510.87 105.76Q490.9 90.35 509.35 87.24Q496.19 102.25 526.34 107.75Q529.76 84.38 554.13 107.53Q561.5 104.89 551.21 130.27Q543.08 156.63 553.62 131.61Q556.44 140.29 525.75 172.23Q552.82 178.37 540.88 165.62Q525.55 150.69 539.33 192Q534.63 183.23 541.86 177.89Q574.91 164.95 574.36 187.25Q594.29 193.18 589.83 175.22Q621.08 175.61 615.28 191.93Q647.68 194.35 630.88 200.02Q616.43 232.14 654.57 230.58Q622.18 238.04 633.77 253.51Q636.33 262.48 621.41 302.75Q634.88 360.1 618.9 414.48L609.95 561.95L649.52 536.68Q668.87 522.94 673.58 524.72Q667.2 524.35 652.01 529.66Q655.76 526.58 653.41 540.5Q668.75 546.59 685.83 573.64Q664.07 552.63 695.34 594.75Q686.63 580.09 649.48 613.05L637.21 665.71L643.42 772.47Q620.85 810.51 627.97 846.66Q608.02 896.84 614.8 928.41Q615.82 939.85 580.51 919.6Q599.48 938.96 561.1 921.17Q525.82 914.08 498.68 896.75Q519.73 872.39 490.95 861.5Q504.3 868.34 512.16 864.07Q502.76 861.43 554.66 830.61Q544.88 836.92 541.26 853.95Q540.31 847.29 566.85 783.29Q556.8 779.23 570.58 791.35Q547.73 774.85 575.5 769.37Q573.49 730.32 562.61 758.5Q541.94 756.67 534.24 769.2Q504.96 771.63 470.63 805.01Q448.11 841.78 451.75 839.58Q426.33 830.39 411.75 836.31Q409.9 815.54 389.48 810.29Q395.64 791.85 388.6 794.91Q385.24 770.64 405.52 784.2Q406.62 763.8 408.37 769.56Q463.94 748.25 499.22 661.86Q566.11 626.28 549.01 611.78Q560.47 602.95 540.71 614.72Q535.28 600.29 498.61 625.45Q444.04 637.73 428.68 638.22Q430.84 610.82 420.67 623.7Q404.88 615.31 397.33 605.66Q403.84 601.83 404.97 461.96Q391.67 438.47 391.34 416.31ZM648.43 296.79Q651.96 279.98 648.28 276.67Q657.45 251.84 697.98 249.27Q690.08 257.06 758 273.7L828.99 250.75V181.37Q810.34 117.81 831.21 99.25Q821.59 108.56 853.29 77.9Q872.45 98.89 867.2 85.57Q868.66 72.47 887.32 74.31Q871.07 86.76 887.3 115.62Q898.03 120.18 886.14 197.14V258.79L927.33 262.04Q935.55 273.18 929.02 275.34Q945.4 254.62 943.01 259.82Q954.49 265.03 957.7 273.28Q956.24 283.73 973.73 296.93Q978.81 303.43 975.22 287.4Q944.69 290.44 945.01 308.35Q960.62 303.56 961 340.04Q934.36 347.65 919.75 330.73L900.36 344.11L904.42 625.19Q884.29 754.55 909.29 805.47V918.15Q891.94 921.12 875.78 925.5Q897.15 913.94 862.08 925.22Q861.59 946.47 818.37 916.71Q809.46 881.55 768.61 892.57Q747.38 866.51 743.11 838.15Q762.5 834.64 781.37 797.16Q759.21 799.44 787.47 780.69Q776.23 797.28 802.73 787.46Q800.83 811.6 827.79 820.11Q808.33 820.87 839.13 826.54Q814.59 834.99 842.2 830.23Q848.69 829.81 834.27 818.7V723.85Q821.15 661.01 840.01 556.11L822.48 322.8L764.49 326.12Q748.56 331.74 719.3 320.75Q702.48 333.07 674.68 331.78Q674.85 320.4 650.06 299.19Q669.71 313.92 669.31 303.67Q641.76 276.02 644.98 303.92ZM92.94 681.56Q97.61 633.44 122.86 641.53Q102.11 628.47 145.12 658.3Q167.87 654.56 176.63 642.17Q190.72 628.63 224.54 648.5Q237.08 653.65 232.42 653.67Q314.93 647.37 321.63 671.97Q332.39 659.44 333.8 708.87Q347.15 728.98 363.6 790.79Q364.24 818.33 361.09 866.61Q343.99 899.19 341.64 902.52Q326.75 897.94 300.79 915.17Q279 928.28 208.54 926.78Q182.11 900.62 182.48 926.29Q152.26 906.8 170.74 916.76Q149.08 934 120.94 928.02Q108.62 891.85 127.77 851.44Q97.57 840.11 96.6 748.94Q97.14 715.55 79 680.37Q113.17 657.18 98.23 658.25ZM86.79 244Q67.04 264.45 69.91 246.44Q98.8 258.49 92.83 235.26Q103.82 252.74 163.17 218.12Q203.54 243.3 279.32 233.4Q343.97 234.11 328.68 244.29Q348.59 250.27 363.28 243.45Q368.02 288.16 355.85 262.3Q372.75 290.34 355.91 293.83Q335.25 286.93 325.7 288.44Q295.5 314.67 241.85 316.82Q176.04 304.13 159.12 313.65Q124.12 306.34 86.93 324.51Q83.9 325.62 110.81 311.07Q65.36 313.05 72.67 282.78Q72.17 267.01 63.12 270.67Q80.42 263.32 53.92 292.5Q66.53 258.9 77.45 275.86ZM130.32 368.58Q132.84 350.1 195.08 360.09Q226.13 358.36 242.22 355.55Q274.18 352.07 287.22 347.01Q314.83 387.67 328.18 387.95Q335.33 409.76 319.98 401Q321.06 429.22 307.38 431.69Q267.16 447.67 239.63 417.12Q163.78 445.85 172.8 420.36Q132.24 432.5 106.55 449.42Q81.98 423.79 92.72 387.27Q92.86 376.44 118.55 366.02ZM114.83 506.76Q104.51 517.58 108.48 496.53Q125.34 499.91 157.27 472.74Q167.43 501.98 170.66 492.63Q200.41 499.11 258.84 488.53Q270.18 491.43 311.81 489.88Q292.27 512.31 327.97 528.66Q315.66 523.43 325.64 516.09Q307.73 517.04 312.31 518.99Q298.08 553.41 317.42 574.55Q266.68 562.84 244.73 558.23Q245.54 586.82 198.99 589.13Q191.97 578.21 139.01 582.97Q136.89 565.51 121.18 560.93Q105.99 574.19 112.05 560.89Q121.45 529.49 95.16 508.27Q115.78 506.7 115.79 499.21ZM158.56 776.24Q156.19 816.68 196.59 806.7L185.57 844.4L217.61 834.52L268.69 833.61L289.16 732.68H151.85V746.69Q159.18 780.4 153.75 772.97ZM144.17 123.42Q137.4 113.16 153.34 107.68Q141.81 100.47 188.61 107.81Q164.61 114.18 193.87 92.76Q248.15 100.18 271.55 99.27Q319.74 117.15 303.49 159.19Q312.52 165.61 326.04 169.73Q328.95 161.82 321.13 210.77Q313.22 216.29 293.2 212.84Q286.29 218.14 246.51 172.06Q242.27 182.18 210.21 174.26Q182.1 182.34 187.1 164.01Q145.25 163.43 130.73 178.52Q121.07 153.75 125.88 157.23Q115.72 161.26 117.56 144.62Q124.94 146.05 129.89 103.21ZM712.09 460.04Q725.69 429.54 693.04 448.61Q725.9 428.68 747.94 430.84Q741 426.47 739.87 438.89Q747.59 445.08 802.68 519.84Q801.94 574.41 802.72 564.38Q804.92 567.46 804.65 573.15Q782.95 614.46 783.36 611.46Q763.87 621.6 775.74 616.25Q747.82 609.73 751.18 591.09Q736.27 593.89 715.01 552.87Q708.87 515.08 702.18 480Q707.16 459.02 708.59 450.34Q692.61 439.26 713.74 439.33ZM440.32 417.53L468.02 417.47L523.12 435.79Q535.47 425.19 547.17 430.29Q564.13 446.05 553.58 415.74Q578.62 428.13 548.12 406.91Q567.46 399.65 553.78 392.12L557.44 368.54H509.34Q468.4 368.09 472.71 376.25Q441.11 355.25 459.42 402.13Q443.69 409.95 440.28 408.61ZM449.68 541.28V559.81L496.87 557.85Q560.78 560.12 539.92 533.81Q566.8 522.05 551.86 527.81Q577.61 517.78 580.24 530.61L560.57 472.93L512.93 473.93H471.47Q481.64 470.94 442.46 477.22Q476.36 483.07 446.65 498.99Q445.73 503.96 455.22 517.16ZM443.38 282.74L456.5 304.04L568.87 313.24V255.26H519.31Q487.62 234.31 490.29 226.21Q448.95 229.37 460.11 260.62Q469.72 247.27 467.86 252.15Q476.37 260.09 467.34 250.11Q451.59 282.07 439.66 277.19Z" fill="black"></path></svg>