<?xml version="1.0" standalone="no"?>
<!DOCTYPE svg PUBLIC "-//W3C//DTD SVG 1.1//EN" "http://www.w3.org/Graphics/SVG/1.1/DTD/svg11.dtd" >
<svg xmlns="http://www.w3.org/2000/svg" xmlns:svg="http://www.w3.org/2000/svg" xmlns:xlink="http://www.w3.org/1999/xlink" viewBox="0 0 1024 1024"><path d="M390.0 414.0Q391.0 234.0 400.0 196.0Q403.0 191.0 413.0 186.5Q423.0 182.0 437.0 180.0Q455.0 178.0 461.5 175.0Q468.0 172.0 468.0 166.0Q468.0 164.0 468.0 162.0Q468.0 151.0 475.0 137.5Q482.0 124.0 493.0 110.0Q502.0 101.0 508.0 100.5Q514.0 100.0 515.0 100.0Q525.0 100.0 538.0 110.0Q551.0 119.0 552.0 128.5Q553.0 138.0 553.0 141.0Q553.0 154.0 545.0 160.0Q544.0 164.0 543.0 166.5Q542.0 169.0 542.0 173.0Q542.0 178.0 550.0 180.0Q558.0 182.0 587.0 182.0Q599.0 184.0 609.0 187.5Q619.0 191.0 625.0 198.0Q634.0 205.0 635.0 212.0Q636.0 219.0 636.0 226.0Q636.0 234.0 635.0 247.0Q634.0 265.0 631.0 312.5Q628.0 360.0 626.0 416.0L623.0 547.0L639.0 537.0Q649.0 530.0 654.0 530.0Q655.0 530.0 658.0 530.5Q661.0 531.0 670.0 540.0Q681.0 552.0 681.0 566.0Q681.0 570.0 679.0 581.0Q677.0 592.0 653.0 625.0L623.0 666.0L626.0 783.0Q628.0 822.0 628.0 849.0Q628.0 887.0 623.5 910.5Q619.0 934.0 599.0 934.0Q583.0 934.0 550.0 920.0Q517.0 906.0 509.0 893.0Q507.0 887.0 507.0 881.0Q507.0 873.0 512.5 862.5Q518.0 852.0 535.0 846.0Q551.0 844.0 554.5 836.0Q558.0 828.0 558.0 794.0Q559.0 783.0 559.0 774.0Q559.0 765.0 557.5 756.0Q556.0 747.0 553.0 747.0Q547.0 747.0 530.0 759.0Q513.0 771.0 482.0 798.0Q446.0 826.0 433.0 828.5Q420.0 831.0 417.0 831.0Q399.0 831.0 394.0 810.0Q392.0 800.0 392.0 793.0Q392.0 785.0 396.0 776.0Q400.0 767.0 418.0 756.0Q455.0 729.0 502.0 680.5Q549.0 632.0 553.0 614.0Q551.0 612.0 539.0 612.0Q527.0 612.0 494.0 615.0Q461.0 618.0 428.0 625.0Q419.0 627.0 410.0 627.0Q401.0 627.0 398.0 625.0Q390.0 597.0 390.0 449.0Q390.0 432.0 390.0 414.0ZM654.0 288.0Q655.0 281.0 662.0 274.0Q668.0 265.0 684.0 261.5Q700.0 258.0 751.0 256.0L824.0 254.0V184.0Q824.0 133.0 829.5 114.5Q835.0 96.0 851.0 92.0Q855.0 90.0 860.5 90.0Q866.0 90.0 871.0 92.0Q887.0 96.0 891.5 115.5Q896.0 135.0 896.0 191.0V267.0L914.0 265.0Q918.0 264.0 923.0 264.0Q927.0 264.0 933.5 265.5Q940.0 267.0 949.0 274.0Q958.0 281.0 959.0 285.5Q960.0 290.0 960.0 292.0Q960.0 297.0 958.0 304.0Q954.0 315.0 947.0 321.5Q940.0 328.0 923.0 331.0L896.0 340.0L900.0 618.0Q902.0 735.0 902.0 817.0V911.0Q896.0 931.0 887.5 931.5Q879.0 932.0 878.0 932.0Q862.0 932.0 832.0 915.0Q799.0 898.0 776.5 876.5Q754.0 855.0 754.0 839.0Q754.0 825.0 765.0 812.0Q776.0 799.0 788.0 799.0Q794.0 799.0 801.0 802.0Q808.0 805.0 814.0 810.0Q819.0 816.0 822.0 817.0Q825.0 818.0 827.0 818.0Q829.0 818.0 830.0 817.0V743.0Q830.0 675.0 828.0 573.0L823.0 331.0L749.0 333.0Q734.0 334.0 722.0 334.0Q688.0 334.0 673.5 329.0Q659.0 324.0 653.0 303.0Q653.0 300.0 653.0 298.0Q653.0 293.0 654.0 288.0ZM97.0 669.0Q99.0 646.0 108.0 643.0Q113.0 639.0 134.0 638.5Q155.0 638.0 167.0 638.0Q191.0 638.0 221.0 639.0Q235.0 639.0 247.0 639.0Q322.0 639.0 335.5 653.0Q349.0 667.0 349.0 720.0Q349.0 743.0 347.0 774.0Q347.0 819.0 345.5 853.5Q344.0 888.0 344.0 895.0Q340.0 909.0 314.0 913.5Q288.0 918.0 218.0 918.0Q199.0 919.0 185.0 919.0Q167.0 919.0 151.0 917.0Q135.0 915.0 130.0 911.0Q119.0 902.0 111.5 867.0Q104.0 832.0 101.0 758.0Q97.0 709.0 97.0 684.0Q97.0 675.0 97.0 669.0ZM70.0 263.0Q74.0 254.0 79.5 247.5Q85.0 241.0 88.0 240.0Q108.0 237.0 180.0 237.0Q197.0 237.0 260.5 237.5Q324.0 238.0 346.0 241.0Q358.0 250.0 358.5 259.5Q359.0 269.0 359.0 270.0Q359.0 286.0 347.0 297.0Q344.0 303.0 318.5 304.5Q293.0 306.0 225.0 306.0Q178.0 306.0 144.0 308.0Q110.0 310.0 103.0 312.0Q99.0 312.0 92.0 308.0Q85.0 304.0 77.0 297.0Q65.0 286.0 64.5 283.0Q64.0 280.0 64.0 280.0Q64.0 274.0 70.0 263.0ZM119.0 364.0Q144.0 359.0 199.0 359.0Q208.0 359.0 248.0 359.5Q288.0 360.0 306.0 366.0Q320.0 374.0 320.0 389.0Q320.0 391.0 318.5 401.5Q317.0 412.0 297.0 423.0Q274.0 432.0 225.5 435.5Q177.0 439.0 155.0 439.0Q131.0 439.0 119.0 436.0Q92.0 423.0 92.0 399.0Q92.0 375.0 119.0 364.0ZM106.0 513.0Q110.0 506.0 120.0 501.5Q130.0 497.0 158.0 492.0Q167.0 491.0 179.0 491.0Q200.0 491.0 241.5 494.0Q283.0 497.0 301.0 504.0Q310.0 508.0 313.5 514.0Q317.0 520.0 317.0 533.0Q317.0 535.0 317.0 537.0Q317.0 559.0 299.0 565.5Q281.0 572.0 242.0 572.0Q227.0 572.0 209.0 571.0Q178.0 569.0 154.0 566.5Q130.0 564.0 124.0 562.0Q112.0 556.0 107.0 545.5Q102.0 535.0 102.0 528.0Q102.0 521.0 106.0 513.0ZM173.0 780.0Q175.0 798.0 178.0 812.0L185.0 846.0L230.0 843.0L277.0 841.0L281.0 715.0H171.0V747.0Q171.0 762.0 173.0 780.0ZM130.0 123.0Q135.0 112.0 146.0 106.0Q155.0 103.0 171.0 103.0Q182.0 103.0 206.0 105.5Q230.0 108.0 261.0 117.0Q302.0 132.0 311.0 146.0Q320.0 160.0 320.0 168.0Q320.0 180.0 306.0 193.0Q299.0 202.0 290.0 202.0Q281.0 202.0 254.0 191.0Q236.0 186.0 218.0 181.5Q200.0 177.0 189.0 175.0Q164.0 169.0 147.5 162.0Q131.0 155.0 128.0 146.0Q126.0 142.0 126.0 137.0Q126.0 130.0 130.0 123.0ZM706.0 450.0Q707.0 445.0 711.0 441.0Q721.0 430.0 730.0 430.0Q737.0 430.0 748.5 442.0Q760.0 454.0 783.0 517.0Q799.0 564.0 799.5 575.5Q800.0 587.0 800.0 588.0Q800.0 607.0 787.0 614.0Q781.0 618.0 776.0 618.0Q767.0 618.0 757.0 604.5Q747.0 591.0 731.0 538.0Q720.0 508.0 713.0 485.5Q706.0 463.0 704.0 459.0Q704.0 456.0 706.0 450.0ZM457.0 402.0 459.0 427.0 508.0 429.0Q519.0 430.0 528.0 430.0Q551.0 430.0 557.5 424.5Q564.0 419.0 564.0 404.0Q564.0 395.0 562.0 384.0L558.0 358.0H509.0Q472.0 358.0 464.0 364.5Q456.0 371.0 456.0 389.0Q456.0 395.0 457.0 402.0ZM455.0 526.0V555.0L500.0 553.0Q542.0 551.0 553.5 544.5Q565.0 538.0 565.0 521.0Q565.0 518.0 565.0 515.0L563.0 492.0L515.0 490.0H478.0Q463.0 490.0 461.0 492.0Q459.0 495.0 457.0 504.0Q455.0 513.0 455.0 526.0ZM459.0 274.0 461.0 297.0 565.0 301.0V241.0H515.0Q493.0 241.0 478.0 243.0Q463.0 245.0 461.0 247.0Q459.0 249.0 458.5 254.5Q458.0 260.0 458.0 262.0Q458.0 268.0 459.0 274.0Z" fill="black"></path></svg>